<?xml version="1.0" encoding="iso-8859-1"?>
<!-- Generator: Adobe Illustrator 19.0.0, SVG Export Plug-In . SVG Version: 6.00 Build 0)  -->
<svg version="1.1" id="Capa_1" xmlns="http://www.w3.org/2000/svg" xmlns:xlink="http://www.w3.org/1999/xlink" x="0px" y="0px"
	 viewBox="0 0 512 512" style="enable-background:new 0 0 512 512;" xml:space="preserve">
<g>
	<g>
		<g>
			<path d="M69.987,270.299L5.703,336.015c-7.724,7.896-7.584,20.559,0.312,28.282C9.906,368.104,14.954,370,19.999,370
				c5.192,0,10.38-2.01,14.298-6.015l64.215-65.645C109.791,287.018,116,271.986,116,256c0-16.026-6.241-31.094-17.526-42.379
				L34.19,148.905c-7.784-7.837-20.448-7.88-28.284-0.095c-7.836,7.784-7.879,20.448-0.095,28.284l64.332,64.763
				C73.919,245.636,76,250.658,76,256s-2.081,10.364-5.858,14.142C70.09,270.194,70.038,270.246,69.987,270.299z"/>
			<path d="M20,40h472c11.046,0,20-8.954,20-20s-8.954-20-20-20H20C8.954,0,0,8.954,0,20S8.954,40,20,40z"/>
			<path d="M492,472H20c-11.046,0-20,8.954-20,20c0,11.046,8.954,20,20,20h472c11.046,0,20-8.954,20-20
				C512,480.954,503.046,472,492,472z"/>
			<path d="M492,118H212c-11.046,0-20,8.954-20,20s8.954,20,20,20h280c11.046,0,20-8.954,20-20C512,126.954,503.046,118,492,118z"/>
			<path d="M492,236H212c-11.046,0-20,8.954-20,20s8.954,20,20,20h280c11.046,0,20-8.954,20-20C512,244.954,503.046,236,492,236z"/>
			<path d="M492,354H212c-11.046,0-20,8.954-20,20c0,11.046,8.954,20,20,20h280c11.046,0,20-8.954,20-20
				C512,362.954,503.046,354,492,354z"/>
		</g>
	</g>
</g>
<g>
</g>
<g>
</g>
<g>
</g>
<g>
</g>
<g>
</g>
<g>
</g>
<g>
</g>
<g>
</g>
<g>
</g>
<g>
</g>
<g>
</g>
<g>
</g>
<g>
</g>
<g>
</g>
<g>
</g>
</svg>
