<svg height="512pt" viewBox="-91 0 512 512.0002" width="512pt" xmlns="http://www.w3.org/2000/svg"><path d="m328.851562 221.011719c-2.398437-5.402344-7.796874-9-13.800781-9h-124.207031l107.105469-189.511719c2.703125-4.800781 2.703125-10.5 0-15-2.699219-4.800781-7.5-7.5-12.898438-7.5h-180.007812c-6.601563 0-12.300781 4.199219-14.101563 10.199219l-90.003906 272.011719c-1.800781 4.503906-.9023438 9.601562 1.800781 13.5 3 3.902343 7.5 6.304687 12.300781 6.304687h127.203126l-81.003907 189.007813c-2.996093 6.898437-.597656 14.699218 5.703125 18.601562 6.300782 3.898438 14.398438 2.996094 19.199219-2.703125l78.902344-88.800781 161.109375-181.210938c3.898437-4.199218 5.101562-10.800781 2.699218-15.898437zm0 0" fill="#ffda2d"/><path d="m326.152344 236.910156-161.109375 181.210938v-418.121094h120.007812c5.398438 0 10.199219 2.699219 12.898438 7.5 2.703125 4.5 2.703125 10.199219 0 15l-107.105469 189.511719h124.207031c6 0 11.402344 3.597656 13.800781 9 2.402344 5.097656 1.199219 11.699219-2.699218 15.898437zm0 0" fill="#fdbf00"/></svg>